{
	"nodes":[{
		"scale":[1.0,
		1.0,
		1.0],
		"name":"Figure",
		"translation":[-150.0,
		0.0,
		0.0],
		"rotation":[0.0,
		0.0,
		0.0,
		-1.0],
		"mesh":0
	}],
	"asset":{
		"version":"2.0",
		"generator":"Created using the official Cinema 4D glTF Exporter 1.000x284978"
	},
	"scenes":[{
		"nodes":[0]
	}],
	"meshes":[{
		"name":"Figure",
		"primitives":[{
			"attributes":{
				"POSITION":1,
				"NORMAL":2,
				"TEXCOORD_0":3
			},
			"indices":0
		}]
	}],
	"accessors":[{
		"bufferView":0,
		"type":"SCALAR",
		"componentType":5123,
		"count":16800,
		"byteOffset":0,
		"min":[0],
		"max":[3807]
	},
	{
		"bufferView":1,
		"type":"VEC3",
		"componentType":5126,
		"count":3808,
		"byteOffset":0,
		"min":[-91.49764251708985,
		-89.9801025390625,
		-15.470440864562989],
		"max":[91.49764251708985,
		89.9801025390625,
		15.470440864562989]
	},
	{
		"bufferView":1,
		"type":"VEC3",
		"componentType":5126,
		"count":3808,
		"byteOffset":12,
		"min":[-1.0,
		-1.0,
		-0.9927265644073486],
		"max":[1.0,
		1.0,
		0.9927265644073486]
	},
	{
		"bufferView":1,
		"type":"VEC2",
		"componentType":5126,
		"count":3808,
		"byteOffset":24,
		"min":[0.0,
		0.0],
		"max":[1.0,
		1.0]
	}],
	"bufferViews":[{
		"buffer":0,
		"byteOffset":0,
		"byteLength":33600,
		"target":34963
	},
	{
		"buffer":0,
		"byteOffset":33600,
		"byteLength":121856,
		"target":34962,
		"byteStride":32
	}],
	"buffers":[{
		"uri":"data:application/octet-stream;base64,",
		"byteLength":155456
	}]
}