{
	"asset":{
		"version":"2.0",
		"generator":"Created using the official Cinema 4D glTF Exporter 1.000x284978"
	},
	"scenes":[{
		"nodes":[0]
	}],
	"nodes":[{
		"name":"WindowFrameBottom",
		"mesh":0
	}],
	"meshes":[{
		"name":"WindowFrameBottom",
		"primitives":[{
			"indices":0,
			"attributes":{
				"POSITION":1,
				"NORMAL":2,
				"TEXCOORD_0":3
			},
			"material":0
		}]
	}],
	"accessors":[{
		"bufferView":0,
		"type":"SCALAR",
		"count":7650,
		"componentType":5123,
		"byteOffset":0,
		"min":[0],
		"max":[1910]
	},
	{
		"bufferView":1,
		"type":"VEC3",
		"count":1911,
		"componentType":5126,
		"byteOffset":0,
		"min":[-191.9062042236328,
		-10.58697509765625,
		-162.5],
		"max":[167.13844299316407,
		190.31039428710938,
		162.88816833496095]
	},
	{
		"bufferView":1,
		"type":"VEC3",
		"count":1911,
		"componentType":5126,
		"byteOffset":12,
		"min":[-1.0,
		-1.0,
		-1.0],
		"max":[1.0,
		1.0,
		1.0]
	},
	{
		"bufferView":1,
		"type":"VEC2",
		"count":1911,
		"componentType":5126,
		"byteOffset":24,
		"min":[0.01839805580675602,
		0.045512765645980838],
		"max":[0.9745824933052063,
		0.9865083694458008]
	}],
	"bufferViews":[{
		"buffer":0,
		"byteOffset":0,
		"byteLength":15300,
		"target":34963
	},
	{
		"buffer":0,
		"byteOffset":15300,
		"byteLength":61152,
		"target":34962,
		"byteStride":32
	}],
	"buffers":[{
		"uri":"data:application/octet-stream;base64,",
		"byteLength":76452
	}],
	"materials":[{
		"pbrMetallicRoughness":{
			"baseColorFactor":[1.0,
			1.0,
			1.0,
			1.0],
			"metallicFactor":1.0,
			"roughnessFactor":1.0
		},
		"emissiveFactor":[0.0,
		0.0,
		0.0],
		"alphaMode":"OPAQUE",
		"doubleSided":false,
		"name":""
	}]
}