{
	"nodes":[{
		"scale":[1.0,
		1.0,
		1.0],
		"name":"Sphere",
		"translation":[130.32598876953126,
		0.0,
		0.039816297590732577],
		"rotation":[0.0,
		0.0,
		0.0,
		-1.0],
		"mesh":0
	}],
	"asset":{
		"version":"2.0",
		"generator":"Created using the official Cinema 4D glTF Exporter 1.000x284978"
	},
	"scenes":[{
		"nodes":[0]
	}],
	"meshes":[{
		"name":"Sphere",
		"primitives":[{
			"attributes":{
				"POSITION":1,
				"NORMAL":2,
				"TEXCOORD_0":3
			},
			"indices":0
		}]
	}],
	"accessors":[{
		"bufferView":0,
		"type":"SCALAR",
		"componentType":5123,
		"count":672,
		"byteOffset":0,
		"min":[0],
		"max":[150]
	},
	{
		"bufferView":1,
		"type":"VEC3",
		"componentType":5126,
		"count":151,
		"byteOffset":0,
		"min":[-18.589370727539064,
		-18.589370727539064,
		-18.589370727539064],
		"max":[18.589370727539064,
		18.589370727539064,
		18.589370727539064]
	},
	{
		"bufferView":1,
		"type":"VEC3",
		"componentType":5126,
		"count":151,
		"byteOffset":12,
		"min":[-0.9999999403953552,
		-1.0,
		-0.9999999403953552],
		"max":[0.9999999403953552,
		1.0,
		0.9999999403953552]
	},
	{
		"bufferView":1,
		"type":"VEC2",
		"componentType":5126,
		"count":151,
		"byteOffset":24,
		"min":[0.0,
		0.0],
		"max":[1.0,
		1.0]
	}],
	"bufferViews":[{
		"buffer":0,
		"byteOffset":0,
		"byteLength":1344,
		"target":34963
	},
	{
		"buffer":0,
		"byteOffset":1344,
		"byteLength":4832,
		"target":34962,
		"byteStride":32
	}],
	"buffers":[{
		"uri":"data:application/octet-stream;base64,",
		"byteLength":6176
	}]
}