{
	"asset":{
		"version":"2.0",
		"generator":"Created using the official Cinema 4D glTF Exporter 1.000x284978"
	},
	"scenes":[{
		"nodes":[0]
	}],
	"bufferViews":[{
		"buffer":0,
		"byteOffset":0,
		"byteLength":6144,
		"target":34963
	},
	{
		"buffer":0,
		"byteOffset":6144,
		"byteLength":22048,
		"target":34962,
		"byteStride":32
	}],
	"nodes":[{
		"name":"Torus",
		"mesh":0
	}],
	"meshes":[{
		"name":"Torus",
		"primitives":[{
			"attributes":{
				"POSITION":1,
				"NORMAL":2,
				"TEXCOORD_0":3
			},
			"indices":0
		}]
	}],
	"accessors":[{
		"bufferView":0,
		"type":"SCALAR",
		"componentType":5123,
		"count":3072,
		"byteOffset":0,
		"min":[0],
		"max":[688]
	},
	{
		"bufferView":1,
		"type":"VEC3",
		"componentType":5126,
		"count":689,
		"byteOffset":0,
		"min":[-2.0,
		-1.0,
		-2.0],
		"max":[2.0,
		1.0,
		2.0]
	},
	{
		"bufferView":1,
		"type":"VEC3",
		"componentType":5126,
		"count":689,
		"byteOffset":12,
		"min":[-1.0,
		-0.9999786615371704,
		-1.0],
		"max":[1.0,
		0.9999786615371704,
		1.0]
	},
	{
		"bufferView":1,
		"type":"VEC2",
		"componentType":5126,
		"count":689,
		"byteOffset":24,
		"min":[0.0,
		0.0],
		"max":[1.0,
		1.0]
	}],
	"buffers":[{
		"uri":"data:application/octet-stream;base64,",
		"byteLength":28192
	}]
}