{
	"nodes":[{
		"name":"Base",
		"translation":[-12.383874893188477,
		89.86170959472656,
		9.506362915039063],
		"rotation":[0.0,
		0.0,
		0.0,
		-1.0],
		"scale":[1.0,
		1.0,
		1.0],
		"mesh":0
	}],
	"asset":{
		"version":"2.0",
		"generator":"Created using the official Cinema 4D glTF Exporter 1.000x284978"
	},
	"scenes":[{
		"nodes":[0]
	}],
	"meshes":[{
		"name":"Base",
		"primitives":[{
			"attributes":{
				"POSITION":1,
				"NORMAL":2,
				"TEXCOORD_0":3
			},
			"indices":0
		}]
	}],
	"accessors":[{
		"count":4764,
		"bufferView":0,
		"type":"SCALAR",
		"componentType":5123,
		"byteOffset":0,
		"min":[0],
		"max":[1098]
	},
	{
		"count":1099,
		"bufferView":1,
		"type":"VEC3",
		"componentType":5126,
		"byteOffset":0,
		"min":[-179.52232360839845,
		-100.44868469238281,
		-153.38180541992188],
		"max":[179.52232360839845,
		100.44868469238281,
		153.38180541992188]
	},
	{
		"count":1099,
		"bufferView":1,
		"type":"VEC3",
		"componentType":5126,
		"byteOffset":12,
		"min":[-1.0,
		-1.0,
		-1.0],
		"max":[1.0,
		1.0,
		1.0]
	},
	{
		"count":1099,
		"bufferView":1,
		"type":"VEC2",
		"componentType":5126,
		"byteOffset":24,
		"min":[0.0019531199941411615,
		0.11378999054431915],
		"max":[0.8770967721939087,
		0.998046875]
	}],
	"bufferViews":[{
		"buffer":0,
		"byteOffset":0,
		"byteLength":9528,
		"target":34963
	},
	{
		"buffer":0,
		"byteOffset":9528,
		"byteLength":35168,
		"target":34962,
		"byteStride":32
	}],
	"buffers":[{
		"uri":"data:application/octet-stream;base64,",
		"byteLength":44696
	}]
}