{
	"nodes":[{
		"name":"CoffeeMachine",
		"translation":[-136.02687072753907,
		98.06942749023438,
		35.865638732910159],
		"rotation":[0.0,
		0.0,
		0.0,
		-1.0],
		"scale":[1.0,
		1.0,
		1.0],
		"mesh":0
	}],
	"asset":{
		"version":"2.0",
		"generator":"Created using the official Cinema 4D glTF Exporter 1.000x284978"
	},
	"scenes":[{
		"nodes":[0]
	}],
	"meshes":[{
		"name":"CoffeeMachine",
		"primitives":[{
			"attributes":{
				"POSITION":1,
				"NORMAL":2,
				"TEXCOORD_0":3
			},
			"indices":0
		}]
	}],
	"accessors":[{
		"count":41976,
		"bufferView":0,
		"type":"SCALAR",
		"componentType":5123,
		"byteOffset":0,
		"min":[0],
		"max":[9740]
	},
	{
		"count":9741,
		"bufferView":1,
		"type":"VEC3",
		"componentType":5126,
		"byteOffset":0,
		"min":[-30.26219940185547,
		-28.047475814819337,
		-25.775611877441408],
		"max":[30.26219940185547,
		28.047475814819337,
		25.775611877441408]
	},
	{
		"count":9741,
		"bufferView":1,
		"type":"VEC3",
		"componentType":5126,
		"byteOffset":12,
		"min":[-1.0,
		-1.0,
		-1.0],
		"max":[1.0,
		1.0,
		1.0]
	},
	{
		"count":9741,
		"bufferView":1,
		"type":"VEC2",
		"componentType":5126,
		"byteOffset":24,
		"min":[0.0,
		0.0],
		"max":[0.9970189929008484,
		0.9970250129699707]
	}],
	"bufferViews":[{
		"buffer":0,
		"byteOffset":0,
		"byteLength":83952,
		"target":34963
	},
	{
		"buffer":0,
		"byteOffset":83952,
		"byteLength":311712,
		"target":34962,
		"byteStride":32
	}],
	"buffers":[{
		"uri":"data:application/octet-stream;base64,",
		"byteLength":395664
	}]
}