{
	"nodes":[{
		"name":"Counter",
		"translation":[-68.11737823486328,
		56.42577362060547,
		-32.975948333740237],
		"rotation":[0.0,
		0.0,
		0.0,
		-1.0],
		"scale":[1.0,
		1.0,
		1.0],
		"mesh":0
	}],
	"asset":{
		"version":"2.0",
		"generator":"Created using the official Cinema 4D glTF Exporter 1.000x284978"
	},
	"scenes":[{
		"nodes":[0]
	}],
	"meshes":[{
		"name":"Counter",
		"primitives":[{
			"attributes":{
				"POSITION":1,
				"NORMAL":2,
				"TEXCOORD_0":3
			},
			"indices":0
		}]
	}],
	"accessors":[{
		"count":90114,
		"bufferView":0,
		"type":"SCALAR",
		"componentType":5123,
		"byteOffset":0,
		"min":[0],
		"max":[18747]
	},
	{
		"count":18748,
		"bufferView":1,
		"type":"VEC3",
		"componentType":5126,
		"byteOffset":0,
		"min":[-99.80257415771485,
		-46.60034942626953,
		-107.25572204589844],
		"max":[99.80257415771485,
		46.60034942626953,
		107.25572204589844]
	},
	{
		"count":18748,
		"bufferView":1,
		"type":"VEC3",
		"componentType":5126,
		"byteOffset":12,
		"min":[-1.0,
		-1.0,
		-1.0],
		"max":[1.0,
		1.0,
		1.0]
	},
	{
		"count":18748,
		"bufferView":1,
		"type":"VEC2",
		"componentType":5126,
		"byteOffset":24,
		"min":[0.02155541069805622,
		0.03783019632101059],
		"max":[0.9680507779121399,
		0.9644429683685303]
	}],
	"bufferViews":[{
		"buffer":0,
		"byteOffset":0,
		"byteLength":180228,
		"target":34963
	},
	{
		"buffer":0,
		"byteOffset":180228,
		"byteLength":599936,
		"target":34962,
		"byteStride":32
	}],
	"buffers":[{
		"uri":"data:application/octet-stream;base64,",
		"byteLength":780164
	}]
}