{
	"nodes":[{
		"name":"L_Plant",
		"translation":[150.87167358398438,
		22.026512145996095,
		-111.58177185058594],
		"rotation":[0.0,
		-0.3158721327781677,
		0.0,
		0.9488017559051514],
		"scale":[1.0,
		1.0,
		1.0],
		"mesh":0
	}],
	"asset":{
		"version":"2.0",
		"generator":"Created using the official Cinema 4D glTF Exporter 1.000x284978"
	},
	"scenes":[{
		"nodes":[0]
	}],
	"meshes":[{
		"name":"L_Plant",
		"primitives":[{
			"attributes":{
				"POSITION":1,
				"NORMAL":2,
				"TEXCOORD_0":3
			},
			"indices":0
		}]
	}],
	"accessors":[{
		"count":5712,
		"bufferView":0,
		"type":"SCALAR",
		"componentType":5123,
		"byteOffset":0,
		"min":[0],
		"max":[1126]
	},
	{
		"count":1127,
		"bufferView":1,
		"type":"VEC3",
		"componentType":5126,
		"byteOffset":0,
		"min":[-18.841724395751954,
		-11.772037506103516,
		-13.284500122070313],
		"max":[18.841724395751954,
		11.772037506103516,
		13.284500122070313]
	},
	{
		"count":1127,
		"bufferView":1,
		"type":"VEC3",
		"componentType":5126,
		"byteOffset":12,
		"min":[-0.9963437914848328,
		-0.9963750243186951,
		-0.9978125691413879],
		"max":[0.99937504529953,
		1.0,
		0.9978125691413879]
	},
	{
		"count":1127,
		"bufferView":1,
		"type":"VEC2",
		"componentType":5126,
		"byteOffset":24,
		"min":[0.05171879008412361,
		0.03795989602804184],
		"max":[0.9404891729354858,
		0.9269530773162842]
	}],
	"bufferViews":[{
		"buffer":0,
		"byteOffset":0,
		"byteLength":11424,
		"target":34963
	},
	{
		"buffer":0,
		"byteOffset":11424,
		"byteLength":36064,
		"target":34962,
		"byteStride":32
	}],
	"buffers":[{
		"uri":"data:application/octet-stream;base64,",
		"byteLength":47488
	}]
}