{
	"nodes":[{
		"name":"Cube.3",
		"translation":[0.047562044113874438,
		1.659006118774414,
		0.30887937545776369],
		"rotation":[0.0,
		0.0,
		0.0,
		-1.0],
		"scale":[0.10000000149011612,
		0.10000000149011612,
		0.10000000149011612],
		"mesh":0
	}],
	"asset":{
		"version":"2.0",
		"generator":"Created using the official Cinema 4D glTF Exporter 1.000x284978"
	},
	"scenes":[{
		"nodes":[0]
	}],
	"meshes":[{
		"name":"Cube.3",
		"primitives":[{
			"attributes":{
				"POSITION":1,
				"NORMAL":2,
				"TEXCOORD_0":3
			},
			"indices":0
		}]
	}],
	"accessors":[{
		"bufferView":0,
		"type":"SCALAR",
		"componentType":5123,
		"count":25662,
		"byteOffset":0,
		"min":[0],
		"max":[5439]
	},
	{
		"bufferView":1,
		"type":"VEC3",
		"componentType":5126,
		"count":5440,
		"byteOffset":0,
		"min":[-18.20317268371582,
		-17.429405212402345,
		-20.913545608520509],
		"max":[15.957059860229493,
		19.22405433654785,
		10.28945255279541]
	},
	{
		"bufferView":1,
		"type":"VEC3",
		"componentType":5126,
		"count":5440,
		"byteOffset":12,
		"min":[-1.0,
		-1.0,
		-1.0],
		"max":[1.0,
		1.0,
		1.0]
	},
	{
		"bufferView":1,
		"type":"VEC2",
		"componentType":5126,
		"count":5440,
		"byteOffset":24,
		"min":[0.0010867284145206214,
		0.0010867449454963208],
		"max":[0.9821491241455078,
		0.9989131689071655]
	}],
	"bufferViews":[{
		"target":34963,
		"buffer":0,
		"byteOffset":0,
		"byteLength":51324
	},
	{
		"target":34962,
		"buffer":0,
		"byteOffset":51324,
		"byteLength":174080,
		"byteStride":32
	}],
	"buffers":[{
		"uri":"data:application/octet-stream;base64,",
		"byteLength":225404
	}]
}