{
	"nodes":[{
		"name":"Cube.3",
		"translation":[0.047562044113874438,
		1.659006118774414,
		-0.30887937545776369],
		"rotation":[0.0,
		0.0,
		0.0,
		-1.0],
		"scale":[0.10000000149011612,
		0.10000000149011612,
		0.10000000149011612],
		"children":[1,
		2,
		3,
		4,
		5,
		6,
		7,
		8,
		9,
		10,
		11,
		12,
		13,
		14,
		15,
		16,
		17,
		18]
	},
	{
		"name":"Cube.3-OctGlossy1.8",
		"mesh":0
	},
	{
		"name":"Cube.3-OctGlossy1.7",
		"mesh":1
	},
	{
		"name":"Cube.3-OctGlossy1.9",
		"mesh":2
	},
	{
		"name":"Cube.3-OctGlossy1.8",
		"mesh":3
	},
	{
		"name":"Cube.3-OctGlossy1.6",
		"mesh":4
	},
	{
		"name":"Cube.3-OctGlossy1.6",
		"mesh":5
	},
	{
		"name":"Cube.3-OctGlossy1.7",
		"mesh":6
	},
	{
		"name":"Cube.3-OctGlossy1.8",
		"mesh":7
	},
	{
		"name":"Cube.3-OctGlossy1.4",
		"mesh":8
	},
	{
		"name":"Cube.3-OctGlossy1.1",
		"mesh":9
	},
	{
		"name":"Cube.3-OctGlossy1.9",
		"mesh":10
	},
	{
		"name":"Cube.3-MSMC Terrazzo Peach",
		"mesh":11
	},
	{
		"name":"Cube.3-OctGlossy1",
		"mesh":12
	},
	{
		"name":"Cube.3-OctGlossy1.1",
		"mesh":13
	},
	{
		"name":"Cube.3-OctGlossy1.8",
		"mesh":14
	},
	{
		"name":"Cube.3-OctGlossy1.2",
		"mesh":15
	},
	{
		"name":"Cube.3-OctGlossy1.9",
		"mesh":16
	},
	{
		"name":"Cube.3-OctGlossy1.5",
		"mesh":17
	}],
	"asset":{
		"version":"2.0",
		"generator":"Created using the official Cinema 4D glTF Exporter 1.000x284978"
	},
	"scenes":[{
		"nodes":[0]
	}],
	"meshes":[{
		"name":"Cube.3-OctGlossy1.8",
		"primitives":[{
			"attributes":{
				"POSITION":1,
				"TEXCOORD_0":2
			},
			"indices":0,
			"material":0
		}]
	},
	{
		"name":"Cube.3-OctGlossy1.7",
		"primitives":[{
			"attributes":{
				"POSITION":4,
				"TEXCOORD_0":5
			},
			"indices":3,
			"material":1
		}]
	},
	{
		"name":"Cube.3-OctGlossy1.9",
		"primitives":[{
			"attributes":{
				"POSITION":7,
				"TEXCOORD_0":8
			},
			"indices":6,
			"material":2
		}]
	},
	{
		"name":"Cube.3-OctGlossy1.8",
		"primitives":[{
			"attributes":{
				"POSITION":10,
				"TEXCOORD_0":11
			},
			"indices":9,
			"material":3
		}]
	},
	{
		"name":"Cube.3-OctGlossy1.6",
		"primitives":[{
			"attributes":{
				"POSITION":13,
				"TEXCOORD_0":14
			},
			"indices":12,
			"material":4
		}]
	},
	{
		"name":"Cube.3-OctGlossy1.6",
		"primitives":[{
			"attributes":{
				"POSITION":16,
				"TEXCOORD_0":17
			},
			"indices":15,
			"material":5
		}]
	},
	{
		"name":"Cube.3-OctGlossy1.7",
		"primitives":[{
			"attributes":{
				"POSITION":19,
				"TEXCOORD_0":20
			},
			"indices":18,
			"material":6
		}]
	},
	{
		"name":"Cube.3-OctGlossy1.8",
		"primitives":[{
			"attributes":{
				"POSITION":22,
				"TEXCOORD_0":23
			},
			"indices":21,
			"material":7
		}]
	},
	{
		"name":"Cube.3-OctGlossy1.4",
		"primitives":[{
			"attributes":{
				"POSITION":25,
				"TEXCOORD_0":26
			},
			"indices":24,
			"material":8
		}]
	},
	{
		"name":"Cube.3-OctGlossy1.1",
		"primitives":[{
			"attributes":{
				"POSITION":28,
				"TEXCOORD_0":29
			},
			"indices":27,
			"material":9
		}]
	},
	{
		"name":"Cube.3-OctGlossy1.9",
		"primitives":[{
			"attributes":{
				"POSITION":31,
				"TEXCOORD_0":32
			},
			"indices":30,
			"material":10
		}]
	},
	{
		"name":"Cube.3-MSMC Terrazzo Peach",
		"primitives":[{
			"attributes":{
				"POSITION":34,
				"TEXCOORD_0":35
			},
			"indices":33,
			"material":11
		}]
	},
	{
		"name":"Cube.3-OctGlossy1",
		"primitives":[{
			"attributes":{
				"POSITION":37,
				"TEXCOORD_0":38
			},
			"indices":36,
			"material":12
		}]
	},
	{
		"name":"Cube.3-OctGlossy1.1",
		"primitives":[{
			"attributes":{
				"POSITION":40,
				"TEXCOORD_0":41
			},
			"indices":39,
			"material":13
		}]
	},
	{
		"name":"Cube.3-OctGlossy1.8",
		"primitives":[{
			"attributes":{
				"POSITION":43,
				"TEXCOORD_0":44
			},
			"indices":42,
			"material":14
		}]
	},
	{
		"name":"Cube.3-OctGlossy1.2",
		"primitives":[{
			"attributes":{
				"POSITION":46,
				"TEXCOORD_0":47
			},
			"indices":45,
			"material":15
		}]
	},
	{
		"name":"Cube.3-OctGlossy1.9",
		"primitives":[{
			"attributes":{
				"POSITION":49,
				"TEXCOORD_0":50
			},
			"indices":48,
			"material":16
		}]
	},
	{
		"name":"Cube.3-OctGlossy1.5",
		"primitives":[{
			"attributes":{
				"POSITION":52,
				"TEXCOORD_0":53
			},
			"indices":51,
			"material":17
		}]
	}],
	"accessors":[{
		"bufferView":0,
		"type":"SCALAR",
		"componentType":5123,
		"count":1344,
		"byteOffset":0,
		"min":[0],
		"max":[331]
	},
	{
		"bufferView":1,
		"type":"VEC3",
		"componentType":5126,
		"count":332,
		"byteOffset":0,
		"min":[12.771456718444825,
		-15.894847869873047,
		6.706038475036621],
		"max":[15.52491569519043,
		-12.37205982208252,
		13.294374465942383]
	},
	{
		"bufferView":1,
		"type":"VEC2",
		"componentType":5126,
		"count":332,
		"byteOffset":12,
		"min":[0.0016585956327617169,
		0.1761842668056488],
		"max":[0.9817548990249634,
		0.8263599872589111]
	},
	{
		"bufferView":2,
		"type":"SCALAR",
		"componentType":5123,
		"count":204,
		"byteOffset":0,
		"min":[0],
		"max":[83]
	},
	{
		"bufferView":3,
		"type":"VEC3",
		"componentType":5126,
		"count":84,
		"byteOffset":0,
		"min":[12.539078712463379,
		-17.311296463012697,
		6.347732067108154],
		"max":[15.957059860229493,
		-14.808429718017579,
		13.719517707824707]
	},
	{
		"bufferView":3,
		"type":"VEC2",
		"componentType":5126,
		"count":84,
		"byteOffset":12,
		"min":[0.0016237790696322919,
		0.26226139068603518],
		"max":[0.9790395498275757,
		0.9680502414703369]
	},
	{
		"bufferView":4,
		"type":"SCALAR",
		"componentType":5123,
		"count":12,
		"byteOffset":0,
		"min":[0],
		"max":[7]
	},
	{
		"bufferView":5,
		"type":"VEC3",
		"componentType":5126,
		"count":8,
		"byteOffset":0,
		"min":[-8.751386642456055,
		-9.754364967346192,
		6.9080095291137699],
		"max":[12.149823188781739,
		-0.022259175777435304,
		13.281792640686036]
	},
	{
		"bufferView":5,
		"type":"VEC2",
		"componentType":5126,
		"count":8,
		"byteOffset":12,
		"min":[0.15332692861557008,
		0.5484554767608643],
		"max":[0.9667270183563232,
		0.9405348300933838]
	},
	{
		"bufferView":6,
		"type":"SCALAR",
		"componentType":5123,
		"count":408,
		"byteOffset":0,
		"min":[0],
		"max":[167]
	},
	{
		"bufferView":7,
		"type":"VEC3",
		"componentType":5126,
		"count":168,
		"byteOffset":0,
		"min":[-8.987504959106446,
		-10.490913391113282,
		6.381117343902588],
		"max":[12.385942459106446,
		0.6566987633705139,
		13.785377502441407]
	},
	{
		"bufferView":7,
		"type":"VEC2",
		"componentType":5126,
		"count":168,
		"byteOffset":12,
		"min":[0.0010867284145206214,
		0.0032759723253548147],
		"max":[0.9789038896560669,
		0.9989131689071655]
	},
	{
		"bufferView":8,
		"type":"SCALAR",
		"componentType":5123,
		"count":192,
		"byteOffset":0,
		"min":[0],
		"max":[73]
	},
	{
		"bufferView":9,
		"type":"VEC3",
		"componentType":5126,
		"count":74,
		"byteOffset":0,
		"min":[-14.77413558959961,
		-17.429405212402345,
		-9.90847396850586],
		"max":[-13.669577598571778,
		7.570594310760498,
		-8.803916931152344]
	},
	{
		"bufferView":9,
		"type":"VEC2",
		"componentType":5126,
		"count":74,
		"byteOffset":12,
		"min":[0.008780350908637047,
		0.3065754771232605],
		"max":[0.674056887626648,
		0.6964321136474609]
	},
	{
		"bufferView":10,
		"type":"SCALAR",
		"componentType":5123,
		"count":192,
		"byteOffset":0,
		"min":[0],
		"max":[73]
	},
	{
		"bufferView":11,
		"type":"VEC3",
		"componentType":5126,
		"count":74,
		"byteOffset":0,
		"min":[0.7078225612640381,
		7.628892421722412,
		4.437690258026123],
		"max":[2.707822561264038,
		10.863715171813965,
		6.437690258026123]
	},
	{
		"bufferView":11,
		"type":"VEC2",
		"componentType":5126,
		"count":74,
		"byteOffset":12,
		"min":[0.00564850028604269,
		0.14177310466766358],
		"max":[0.8827166557312012,
		0.9605951309204102]
	},
	{
		"bufferView":12,
		"type":"SCALAR",
		"componentType":5123,
		"count":72,
		"byteOffset":0,
		"min":[0],
		"max":[47]
	},
	{
		"bufferView":13,
		"type":"VEC3",
		"componentType":5126,
		"count":48,
		"byteOffset":0,
		"min":[-7.375276565551758,
		2.16672420501709,
		14.773271560668946],
		"max":[5.619081497192383,
		6.934802532196045,
		17.852476119995118]
	},
	{
		"bufferView":13,
		"type":"VEC2",
		"componentType":5126,
		"count":48,
		"byteOffset":12,
		"min":[0.0010875924490392209,
		0.03898724913597107],
		"max":[0.6842820644378662,
		0.9307917356491089]
	},
	{
		"bufferView":14,
		"type":"SCALAR",
		"componentType":5123,
		"count":36,
		"byteOffset":0,
		"min":[0],
		"max":[23]
	},
	{
		"bufferView":15,
		"type":"VEC3",
		"componentType":5126,
		"count":24,
		"byteOffset":0,
		"min":[-8.10285472869873,
		-17.383703231811525,
		14.777958869934082],
		"max":[0.37657952308654787,
		-9.985803604125977,
		20.913545608520509]
	},
	{
		"bufferView":15,
		"type":"VEC2",
		"componentType":5126,
		"count":24,
		"byteOffset":12,
		"min":[0.06529808044433594,
		0.13268843293190003],
		"max":[0.9778279066085815,
		0.9446380138397217]
	},
	{
		"bufferView":16,
		"type":"SCALAR",
		"componentType":5123,
		"count":36,
		"byteOffset":0,
		"min":[0],
		"max":[23]
	},
	{
		"bufferView":17,
		"type":"VEC3",
		"componentType":5126,
		"count":24,
		"byteOffset":0,
		"min":[-18.20317268371582,
		-8.476709365844727,
		-10.28945255279541],
		"max":[-10.43701171875,
		-5.996687412261963,
		-9.976316452026368]
	},
	{
		"bufferView":17,
		"type":"VEC2",
		"componentType":5126,
		"count":24,
		"byteOffset":12,
		"min":[0.12482167780399323,
		0.009324032813310624],
		"max":[0.981623649597168,
		0.9334608316421509]
	},
	{
		"bufferView":18,
		"type":"SCALAR",
		"componentType":5123,
		"count":36,
		"byteOffset":0,
		"min":[0],
		"max":[23]
	},
	{
		"bufferView":19,
		"type":"VEC3",
		"componentType":5126,
		"count":24,
		"byteOffset":0,
		"min":[-18.20317268371582,
		-1.7034748792648316,
		-10.28945255279541],
		"max":[-10.43701171875,
		0.7765470743179321,
		-9.976316452026368]
	},
	{
		"bufferView":19,
		"type":"VEC2",
		"componentType":5126,
		"count":24,
		"byteOffset":12,
		"min":[0.3264549970626831,
		0.12734439969062806],
		"max":[0.9736998081207275,
		0.9883718490600586]
	},
	{
		"bufferView":20,
		"type":"SCALAR",
		"componentType":5123,
		"count":36,
		"byteOffset":0,
		"min":[0],
		"max":[23]
	},
	{
		"bufferView":21,
		"type":"VEC3",
		"componentType":5126,
		"count":24,
		"byteOffset":0,
		"min":[-18.20317268371582,
		4.683566093444824,
		-10.28945255279541],
		"max":[-10.43701171875,
		7.163588047027588,
		-9.976316452026368]
	},
	{
		"bufferView":21,
		"type":"VEC2",
		"componentType":5126,
		"count":24,
		"byteOffset":12,
		"min":[0.24564796686172486,
		0.033643193542957309],
		"max":[0.8535749912261963,
		0.9856971502304077]
	},
	{
		"bufferView":22,
		"type":"SCALAR",
		"componentType":5123,
		"count":66,
		"byteOffset":0,
		"min":[0],
		"max":[35]
	},
	{
		"bufferView":23,
		"type":"VEC3",
		"componentType":5126,
		"count":36,
		"byteOffset":0,
		"min":[-8.562312126159668,
		-9.981287956237793,
		-5.754579067230225],
		"max":[12.122015953063965,
		-9.516287803649903,
		5.4773969650268559]
	},
	{
		"bufferView":23,
		"type":"VEC2",
		"componentType":5126,
		"count":36,
		"byteOffset":12,
		"min":[0.2972525954246521,
		0.0010867449454963208],
		"max":[0.95442795753479,
		0.9610878229141235]
	},
	{
		"bufferView":24,
		"type":"SCALAR",
		"componentType":5123,
		"count":336,
		"byteOffset":0,
		"min":[0],
		"max":[143]
	},
	{
		"bufferView":25,
		"type":"VEC3",
		"componentType":5126,
		"count":144,
		"byteOffset":0,
		"min":[-8.562312126159668,
		-17.387535095214845,
		-5.754579067230225],
		"max":[12.122015953063965,
		7.956984519958496,
		14.812661170959473]
	},
	{
		"bufferView":25,
		"type":"VEC2",
		"componentType":5126,
		"count":144,
		"byteOffset":12,
		"min":[0.008595127612352372,
		0.015451952815055848],
		"max":[0.9815593957901001,
		0.9816274642944336]
	},
	{
		"bufferView":26,
		"type":"SCALAR",
		"componentType":5123,
		"count":36,
		"byteOffset":0,
		"min":[0],
		"max":[23]
	},
	{
		"bufferView":27,
		"type":"VEC3",
		"componentType":5126,
		"count":24,
		"byteOffset":0,
		"min":[-4.3168439865112309,
		14.875394821166993,
		-0.5637999176979065],
		"max":[7.648155689239502,
		15.221101760864258,
		11.401200294494629]
	},
	{
		"bufferView":27,
		"type":"VEC2",
		"componentType":5126,
		"count":24,
		"byteOffset":12,
		"min":[0.13918867707252503,
		0.08943824470043183],
		"max":[0.8742988109588623,
		0.9973815679550171]
	},
	{
		"bufferView":28,
		"type":"SCALAR",
		"componentType":5123,
		"count":768,
		"byteOffset":0,
		"min":[0],
		"max":[295]
	},
	{
		"bufferView":29,
		"type":"VEC3",
		"componentType":5126,
		"count":296,
		"byteOffset":0,
		"min":[-5.725481033325195,
		14.263623237609864,
		-1.9453556537628174],
		"max":[9.611169815063477,
		14.763623237609864,
		12.70870590209961]
	},
	{
		"bufferView":29,
		"type":"VEC2",
		"componentType":5126,
		"count":296,
		"byteOffset":12,
		"min":[0.008595127612352372,
		0.007960090413689614],
		"max":[0.9821491241455078,
		0.9971017837524414]
	},
	{
		"bufferView":30,
		"type":"SCALAR",
		"componentType":5123,
		"count":192,
		"byteOffset":0,
		"min":[0],
		"max":[73]
	},
	{
		"bufferView":31,
		"type":"VEC3",
		"componentType":5126,
		"count":74,
		"byteOffset":0,
		"min":[-4.979655742645264,
		13.188105583190918,
		-1.2266113758087159],
		"max":[8.310967445373536,
		14.188105583190918,
		12.064011573791504]
	},
	{
		"bufferView":31,
		"type":"VEC2",
		"componentType":5126,
		"count":74,
		"byteOffset":12,
		"min":[0.03840482980012894,
		0.03505188226699829],
		"max":[0.8909057378768921,
		0.9988441467285156]
	},
	{
		"bufferView":32,
		"type":"SCALAR",
		"componentType":5123,
		"count":192,
		"byteOffset":0,
		"min":[0],
		"max":[73]
	},
	{
		"bufferView":33,
		"type":"VEC3",
		"componentType":5126,
		"count":74,
		"byteOffset":0,
		"min":[-5.334344387054443,
		15.431710243225098,
		-1.581299901008606],
		"max":[8.665656089782715,
		16.431711196899415,
		12.418700218200684]
	},
	{
		"bufferView":33,
		"type":"VEC2",
		"componentType":5126,
		"count":74,
		"byteOffset":12,
		"min":[0.15332692861557008,
		0.0026419120840728285],
		"max":[0.6572270393371582,
		0.9985073804855347]
	},
	{
		"bufferView":34,
		"type":"SCALAR",
		"componentType":5123,
		"count":21504,
		"byteOffset":0,
		"min":[0],
		"max":[3907]
	},
	{
		"bufferView":35,
		"type":"VEC3",
		"componentType":5126,
		"count":3908,
		"byteOffset":0,
		"min":[-5.285188674926758,
		10.529460906982422,
		-1.5321444272994996],
		"max":[8.616499900817871,
		19.22405433654785,
		12.369544982910157]
	},
	{
		"bufferView":35,
		"type":"VEC2",
		"componentType":5126,
		"count":3908,
		"byteOffset":12,
		"min":[0.0027903299778699877,
		0.09236876666545868],
		"max":[0.9429535865783691,
		0.9971582889556885]
	}],
	"bufferViews":[{
		"target":34963,
		"buffer":0,
		"byteOffset":0,
		"byteLength":2688
	},
	{
		"target":34962,
		"buffer":0,
		"byteOffset":2688,
		"byteLength":6640,
		"byteStride":20
	},
	{
		"target":34963,
		"buffer":1,
		"byteOffset":0,
		"byteLength":408
	},
	{
		"target":34962,
		"buffer":1,
		"byteOffset":408,
		"byteLength":1680,
		"byteStride":20
	},
	{
		"target":34963,
		"buffer":2,
		"byteOffset":0,
		"byteLength":24
	},
	{
		"target":34962,
		"buffer":2,
		"byteOffset":24,
		"byteLength":160,
		"byteStride":20
	},
	{
		"target":34963,
		"buffer":3,
		"byteOffset":0,
		"byteLength":816
	},
	{
		"target":34962,
		"buffer":3,
		"byteOffset":816,
		"byteLength":3360,
		"byteStride":20
	},
	{
		"target":34963,
		"buffer":4,
		"byteOffset":0,
		"byteLength":384
	},
	{
		"target":34962,
		"buffer":4,
		"byteOffset":384,
		"byteLength":1480,
		"byteStride":20
	},
	{
		"target":34963,
		"buffer":5,
		"byteOffset":0,
		"byteLength":384
	},
	{
		"target":34962,
		"buffer":5,
		"byteOffset":384,
		"byteLength":1480,
		"byteStride":20
	},
	{
		"target":34963,
		"buffer":6,
		"byteOffset":0,
		"byteLength":144
	},
	{
		"target":34962,
		"buffer":6,
		"byteOffset":144,
		"byteLength":960,
		"byteStride":20
	},
	{
		"target":34963,
		"buffer":7,
		"byteOffset":0,
		"byteLength":72
	},
	{
		"target":34962,
		"buffer":7,
		"byteOffset":72,
		"byteLength":480,
		"byteStride":20
	},
	{
		"target":34963,
		"buffer":8,
		"byteOffset":0,
		"byteLength":72
	},
	{
		"target":34962,
		"buffer":8,
		"byteOffset":72,
		"byteLength":480,
		"byteStride":20
	},
	{
		"target":34963,
		"buffer":9,
		"byteOffset":0,
		"byteLength":72
	},
	{
		"target":34962,
		"buffer":9,
		"byteOffset":72,
		"byteLength":480,
		"byteStride":20
	},
	{
		"target":34963,
		"buffer":10,
		"byteOffset":0,
		"byteLength":72
	},
	{
		"target":34962,
		"buffer":10,
		"byteOffset":72,
		"byteLength":480,
		"byteStride":20
	},
	{
		"target":34963,
		"buffer":11,
		"byteOffset":0,
		"byteLength":132
	},
	{
		"target":34962,
		"buffer":11,
		"byteOffset":132,
		"byteLength":720,
		"byteStride":20
	},
	{
		"target":34963,
		"buffer":12,
		"byteOffset":0,
		"byteLength":672
	},
	{
		"target":34962,
		"buffer":12,
		"byteOffset":672,
		"byteLength":2880,
		"byteStride":20
	},
	{
		"target":34963,
		"buffer":13,
		"byteOffset":0,
		"byteLength":72
	},
	{
		"target":34962,
		"buffer":13,
		"byteOffset":72,
		"byteLength":480,
		"byteStride":20
	},
	{
		"target":34963,
		"buffer":14,
		"byteOffset":0,
		"byteLength":1536
	},
	{
		"target":34962,
		"buffer":14,
		"byteOffset":1536,
		"byteLength":5920,
		"byteStride":20
	},
	{
		"target":34963,
		"buffer":15,
		"byteOffset":0,
		"byteLength":384
	},
	{
		"target":34962,
		"buffer":15,
		"byteOffset":384,
		"byteLength":1480,
		"byteStride":20
	},
	{
		"target":34963,
		"buffer":16,
		"byteOffset":0,
		"byteLength":384
	},
	{
		"target":34962,
		"buffer":16,
		"byteOffset":384,
		"byteLength":1480,
		"byteStride":20
	},
	{
		"target":34963,
		"buffer":17,
		"byteOffset":0,
		"byteLength":43008
	},
	{
		"target":34962,
		"buffer":17,
		"byteOffset":43008,
		"byteLength":78160,
		"byteStride":20
	}],
	"buffers":[{
		"uri":"data:application/octet-stream;base64,",
		"byteLength":9328
	},
	{
		"uri":"data:application/octet-stream;base64,",
		"byteLength":2088
	},
	{
		"uri":"data:application/octet-stream;base64,",
		"byteLength":184
	},
	{
		"uri":"data:application/octet-stream;base64,",
		"byteLength":4176
	},
	{
		"uri":"data:application/octet-stream;base64,",
		"byteLength":1864
	},
	{
		"uri":"data:application/octet-stream;base64,",
		"byteLength":1864
	},
	{
		"uri":"data:application/octet-stream;base64,",
		"byteLength":1104
	},
	{
		"uri":"data:application/octet-stream;base64,",
		"byteLength":552
	},
	{
		"uri":"data:application/octet-stream;base64,",
		"byteLength":552
	},
	{
		"uri":"data:application/octet-stream;base64,",
		"byteLength":552
	},
	{
		"uri":"data:application/octet-stream;base64,",
		"byteLength":552
	},
	{
		"uri":"data:application/octet-stream;base64,",
		"byteLength":852
	},
	{
		"uri":"data:application/octet-stream;base64,",
		"byteLength":3552
	},
	{
		"uri":"data:application/octet-stream;base64,",
		"byteLength":552
	},
	{
		"uri":"data:application/octet-stream;base64,",
		"byteLength":7456
	},
	{
		"uri":"data:application/octet-stream;base64,",
		"byteLength":1864
	},
	{
		"uri":"data:application/octet-stream;base64,",
		"byteLength":1864
	},
	{
		"uri":"data:application/octet-stream;base64,",
		"byteLength":121168
	}],
	"materials":[{
		"pbrMetallicRoughness":{
			"baseColorFactor":[1.0,
			1.0,
			1.0,
			1.0],
			"metallicFactor":1.0,
			"roughnessFactor":1.0
		},
		"emissiveFactor":[0.0,
		0.0,
		0.0],
		"alphaMode":"OPAQUE",
		"doubleSided":false,
		"name":""
	},
	{
		"pbrMetallicRoughness":{
			"baseColorFactor":[1.0,
			1.0,
			1.0,
			1.0],
			"metallicFactor":1.0,
			"roughnessFactor":1.0
		},
		"emissiveFactor":[0.0,
		0.0,
		0.0],
		"alphaMode":"OPAQUE",
		"doubleSided":false,
		"name":""
	},
	{
		"pbrMetallicRoughness":{
			"baseColorFactor":[1.0,
			1.0,
			1.0,
			1.0],
			"metallicFactor":1.0,
			"roughnessFactor":1.0
		},
		"emissiveFactor":[0.0,
		0.0,
		0.0],
		"alphaMode":"OPAQUE",
		"doubleSided":false,
		"name":""
	},
	{
		"pbrMetallicRoughness":{
			"baseColorFactor":[1.0,
			1.0,
			1.0,
			1.0],
			"metallicFactor":1.0,
			"roughnessFactor":1.0
		},
		"emissiveFactor":[0.0,
		0.0,
		0.0],
		"alphaMode":"OPAQUE",
		"doubleSided":false,
		"name":""
	},
	{
		"pbrMetallicRoughness":{
			"baseColorFactor":[1.0,
			1.0,
			1.0,
			1.0],
			"metallicFactor":1.0,
			"roughnessFactor":1.0
		},
		"emissiveFactor":[0.0,
		0.0,
		0.0],
		"alphaMode":"OPAQUE",
		"doubleSided":false,
		"name":""
	},
	{
		"pbrMetallicRoughness":{
			"baseColorFactor":[1.0,
			1.0,
			1.0,
			1.0],
			"metallicFactor":1.0,
			"roughnessFactor":1.0
		},
		"emissiveFactor":[0.0,
		0.0,
		0.0],
		"alphaMode":"OPAQUE",
		"doubleSided":false,
		"name":""
	},
	{
		"pbrMetallicRoughness":{
			"baseColorFactor":[1.0,
			1.0,
			1.0,
			1.0],
			"metallicFactor":1.0,
			"roughnessFactor":1.0
		},
		"emissiveFactor":[0.0,
		0.0,
		0.0],
		"alphaMode":"OPAQUE",
		"doubleSided":false,
		"name":""
	},
	{
		"pbrMetallicRoughness":{
			"baseColorFactor":[1.0,
			1.0,
			1.0,
			1.0],
			"metallicFactor":1.0,
			"roughnessFactor":1.0
		},
		"emissiveFactor":[0.0,
		0.0,
		0.0],
		"alphaMode":"OPAQUE",
		"doubleSided":false,
		"name":""
	},
	{
		"pbrMetallicRoughness":{
			"baseColorFactor":[1.0,
			1.0,
			1.0,
			1.0],
			"metallicFactor":1.0,
			"roughnessFactor":1.0
		},
		"emissiveFactor":[0.0,
		0.0,
		0.0],
		"alphaMode":"OPAQUE",
		"doubleSided":false,
		"name":""
	},
	{
		"pbrMetallicRoughness":{
			"baseColorFactor":[1.0,
			1.0,
			1.0,
			1.0],
			"metallicFactor":1.0,
			"roughnessFactor":1.0
		},
		"emissiveFactor":[0.0,
		0.0,
		0.0],
		"alphaMode":"OPAQUE",
		"doubleSided":false,
		"name":""
	},
	{
		"pbrMetallicRoughness":{
			"baseColorFactor":[1.0,
			1.0,
			1.0,
			1.0],
			"metallicFactor":1.0,
			"roughnessFactor":1.0
		},
		"emissiveFactor":[0.0,
		0.0,
		0.0],
		"alphaMode":"OPAQUE",
		"doubleSided":false,
		"name":""
	},
	{
		"pbrMetallicRoughness":{
			"baseColorFactor":[1.0,
			1.0,
			1.0,
			1.0],
			"metallicFactor":1.0,
			"roughnessFactor":1.0
		},
		"emissiveFactor":[0.0,
		0.0,
		0.0],
		"alphaMode":"OPAQUE",
		"doubleSided":false,
		"name":""
	},
	{
		"pbrMetallicRoughness":{
			"baseColorFactor":[1.0,
			1.0,
			1.0,
			1.0],
			"metallicFactor":1.0,
			"roughnessFactor":1.0
		},
		"emissiveFactor":[0.0,
		0.0,
		0.0],
		"alphaMode":"OPAQUE",
		"doubleSided":false,
		"name":""
	},
	{
		"pbrMetallicRoughness":{
			"baseColorFactor":[1.0,
			1.0,
			1.0,
			1.0],
			"metallicFactor":1.0,
			"roughnessFactor":1.0
		},
		"emissiveFactor":[0.0,
		0.0,
		0.0],
		"alphaMode":"OPAQUE",
		"doubleSided":false,
		"name":""
	},
	{
		"pbrMetallicRoughness":{
			"baseColorFactor":[1.0,
			1.0,
			1.0,
			1.0],
			"metallicFactor":1.0,
			"roughnessFactor":1.0
		},
		"emissiveFactor":[0.0,
		0.0,
		0.0],
		"alphaMode":"OPAQUE",
		"doubleSided":false,
		"name":""
	},
	{
		"pbrMetallicRoughness":{
			"baseColorFactor":[1.0,
			1.0,
			1.0,
			1.0],
			"metallicFactor":1.0,
			"roughnessFactor":1.0
		},
		"emissiveFactor":[0.0,
		0.0,
		0.0],
		"alphaMode":"OPAQUE",
		"doubleSided":false,
		"name":""
	},
	{
		"pbrMetallicRoughness":{
			"baseColorFactor":[1.0,
			1.0,
			1.0,
			1.0],
			"metallicFactor":1.0,
			"roughnessFactor":1.0
		},
		"emissiveFactor":[0.0,
		0.0,
		0.0],
		"alphaMode":"OPAQUE",
		"doubleSided":false,
		"name":""
	},
	{
		"pbrMetallicRoughness":{
			"baseColorFactor":[1.0,
			1.0,
			1.0,
			1.0],
			"metallicFactor":1.0,
			"roughnessFactor":1.0
		},
		"emissiveFactor":[0.0,
		0.0,
		0.0],
		"alphaMode":"OPAQUE",
		"doubleSided":false,
		"name":""
	}]
}